<mxfile host="app.diagrams.net" agent="Mozilla/5.0 (Windows NT 10.0; Win64; x64) AppleWebKit/537.36 (KHTML, like Gecko) Chrome/128.0.0.0 Safari/537.36" version="24.7.16">
  <diagram name="Page-1" id="qx_lQjWNe6FuMr_KUOxY">
    <mxGraphModel grid="1" page="1" gridSize="10" guides="1" tooltips="1" connect="1" arrows="1" fold="1" pageScale="1" pageWidth="850" pageHeight="1100" math="0" shadow="0">
      <root>
        <mxCell id="0" />
        <mxCell id="1" parent="0" />
        <mxCell id="ozlJdwtbdOe9ZKJpykzp-47" value="Buku" style="swimlane;fontStyle=1;align=center;verticalAlign=top;childLayout=stackLayout;horizontal=1;startSize=25.7;horizontalStack=0;resizeParent=1;resizeParentMax=0;resizeLast=0;collapsible=0;marginBottom=0;" vertex="1" parent="1">
          <mxGeometry x="402" y="512" width="133" height="267.7" as="geometry" />
        </mxCell>
        <mxCell id="ozlJdwtbdOe9ZKJpykzp-48" value="+String judul" style="text;strokeColor=none;fillColor=none;align=left;verticalAlign=top;spacingLeft=4;spacingRight=4;overflow=hidden;rotatable=0;points=[[0,0.5],[1,0.5]];portConstraint=eastwest;" vertex="1" parent="ozlJdwtbdOe9ZKJpykzp-47">
          <mxGeometry y="25.7" width="133" height="26" as="geometry" />
        </mxCell>
        <mxCell id="ozlJdwtbdOe9ZKJpykzp-49" value="+String penulis" style="text;strokeColor=none;fillColor=none;align=left;verticalAlign=top;spacingLeft=4;spacingRight=4;overflow=hidden;rotatable=0;points=[[0,0.5],[1,0.5]];portConstraint=eastwest;" vertex="1" parent="ozlJdwtbdOe9ZKJpykzp-47">
          <mxGeometry y="51.7" width="133" height="26" as="geometry" />
        </mxCell>
        <mxCell id="ozlJdwtbdOe9ZKJpykzp-50" value="+String penerbit" style="text;strokeColor=none;fillColor=none;align=left;verticalAlign=top;spacingLeft=4;spacingRight=4;overflow=hidden;rotatable=0;points=[[0,0.5],[1,0.5]];portConstraint=eastwest;" vertex="1" parent="ozlJdwtbdOe9ZKJpykzp-47">
          <mxGeometry y="77.7" width="133" height="26" as="geometry" />
        </mxCell>
        <mxCell id="ozlJdwtbdOe9ZKJpykzp-51" value="+String kategori" style="text;strokeColor=none;fillColor=none;align=left;verticalAlign=top;spacingLeft=4;spacingRight=4;overflow=hidden;rotatable=0;points=[[0,0.5],[1,0.5]];portConstraint=eastwest;" vertex="1" parent="ozlJdwtbdOe9ZKJpykzp-47">
          <mxGeometry y="103.7" width="133" height="26" as="geometry" />
        </mxCell>
        <mxCell id="ozlJdwtbdOe9ZKJpykzp-52" value="+double harga" style="text;strokeColor=none;fillColor=none;align=left;verticalAlign=top;spacingLeft=4;spacingRight=4;overflow=hidden;rotatable=0;points=[[0,0.5],[1,0.5]];portConstraint=eastwest;" vertex="1" parent="ozlJdwtbdOe9ZKJpykzp-47">
          <mxGeometry y="129.7" width="133" height="26" as="geometry" />
        </mxCell>
        <mxCell id="ozlJdwtbdOe9ZKJpykzp-53" value="+int stok" style="text;strokeColor=none;fillColor=none;align=left;verticalAlign=top;spacingLeft=4;spacingRight=4;overflow=hidden;rotatable=0;points=[[0,0.5],[1,0.5]];portConstraint=eastwest;" vertex="1" parent="ozlJdwtbdOe9ZKJpykzp-47">
          <mxGeometry y="155.7" width="133" height="26" as="geometry" />
        </mxCell>
        <mxCell id="ozlJdwtbdOe9ZKJpykzp-54" value="+String deskripsi" style="text;strokeColor=none;fillColor=none;align=left;verticalAlign=top;spacingLeft=4;spacingRight=4;overflow=hidden;rotatable=0;points=[[0,0.5],[1,0.5]];portConstraint=eastwest;" vertex="1" parent="ozlJdwtbdOe9ZKJpykzp-47">
          <mxGeometry y="181.7" width="133" height="26" as="geometry" />
        </mxCell>
        <mxCell id="ozlJdwtbdOe9ZKJpykzp-55" style="line;strokeWidth=1;fillColor=none;align=left;verticalAlign=middle;spacingTop=-1;spacingLeft=3;spacingRight=3;rotatable=0;labelPosition=right;points=[];portConstraint=eastwest;strokeColor=inherit;" vertex="1" parent="ozlJdwtbdOe9ZKJpykzp-47">
          <mxGeometry y="207.7" width="133" height="8" as="geometry" />
        </mxCell>
        <mxCell id="ozlJdwtbdOe9ZKJpykzp-56" value="+tambahStok()" style="text;strokeColor=none;fillColor=none;align=left;verticalAlign=top;spacingLeft=4;spacingRight=4;overflow=hidden;rotatable=0;points=[[0,0.5],[1,0.5]];portConstraint=eastwest;" vertex="1" parent="ozlJdwtbdOe9ZKJpykzp-47">
          <mxGeometry y="215.7" width="133" height="26" as="geometry" />
        </mxCell>
        <mxCell id="ozlJdwtbdOe9ZKJpykzp-57" value="+kurangiStok()" style="text;strokeColor=none;fillColor=none;align=left;verticalAlign=top;spacingLeft=4;spacingRight=4;overflow=hidden;rotatable=0;points=[[0,0.5],[1,0.5]];portConstraint=eastwest;" vertex="1" parent="ozlJdwtbdOe9ZKJpykzp-47">
          <mxGeometry y="241.7" width="133" height="26" as="geometry" />
        </mxCell>
        <mxCell id="ozlJdwtbdOe9ZKJpykzp-58" value="Pelanggan" style="swimlane;fontStyle=1;align=center;verticalAlign=top;childLayout=stackLayout;horizontal=1;startSize=26.375;horizontalStack=0;resizeParent=1;resizeParentMax=0;resizeLast=0;collapsible=0;marginBottom=0;" vertex="1" parent="1">
          <mxGeometry x="24" y="20" width="200" height="216.375" as="geometry" />
        </mxCell>
        <mxCell id="ozlJdwtbdOe9ZKJpykzp-59" value="+String nama" style="text;strokeColor=none;fillColor=none;align=left;verticalAlign=top;spacingLeft=4;spacingRight=4;overflow=hidden;rotatable=0;points=[[0,0.5],[1,0.5]];portConstraint=eastwest;" vertex="1" parent="ozlJdwtbdOe9ZKJpykzp-58">
          <mxGeometry y="26.375" width="200" height="26" as="geometry" />
        </mxCell>
        <mxCell id="ozlJdwtbdOe9ZKJpykzp-60" value="+String email" style="text;strokeColor=none;fillColor=none;align=left;verticalAlign=top;spacingLeft=4;spacingRight=4;overflow=hidden;rotatable=0;points=[[0,0.5],[1,0.5]];portConstraint=eastwest;" vertex="1" parent="ozlJdwtbdOe9ZKJpykzp-58">
          <mxGeometry y="52.375" width="200" height="26" as="geometry" />
        </mxCell>
        <mxCell id="ozlJdwtbdOe9ZKJpykzp-61" value="+String alamat" style="text;strokeColor=none;fillColor=none;align=left;verticalAlign=top;spacingLeft=4;spacingRight=4;overflow=hidden;rotatable=0;points=[[0,0.5],[1,0.5]];portConstraint=eastwest;" vertex="1" parent="ozlJdwtbdOe9ZKJpykzp-58">
          <mxGeometry y="78.375" width="200" height="26" as="geometry" />
        </mxCell>
        <mxCell id="ozlJdwtbdOe9ZKJpykzp-62" value="+String telepon" style="text;strokeColor=none;fillColor=none;align=left;verticalAlign=top;spacingLeft=4;spacingRight=4;overflow=hidden;rotatable=0;points=[[0,0.5],[1,0.5]];portConstraint=eastwest;" vertex="1" parent="ozlJdwtbdOe9ZKJpykzp-58">
          <mxGeometry y="104.375" width="200" height="26" as="geometry" />
        </mxCell>
        <mxCell id="ozlJdwtbdOe9ZKJpykzp-63" value="+keranjang: Keranjang" style="text;strokeColor=none;fillColor=none;align=left;verticalAlign=top;spacingLeft=4;spacingRight=4;overflow=hidden;rotatable=0;points=[[0,0.5],[1,0.5]];portConstraint=eastwest;" vertex="1" parent="ozlJdwtbdOe9ZKJpykzp-58">
          <mxGeometry y="130.375" width="200" height="26" as="geometry" />
        </mxCell>
        <mxCell id="ozlJdwtbdOe9ZKJpykzp-64" value="+daftarPesanan: List" style="text;strokeColor=none;fillColor=none;align=left;verticalAlign=top;spacingLeft=4;spacingRight=4;overflow=hidden;rotatable=0;points=[[0,0.5],[1,0.5]];portConstraint=eastwest;" vertex="1" parent="ozlJdwtbdOe9ZKJpykzp-58">
          <mxGeometry y="156.375" width="200" height="26" as="geometry" />
        </mxCell>
        <mxCell id="ozlJdwtbdOe9ZKJpykzp-65" style="line;strokeWidth=1;fillColor=none;align=left;verticalAlign=middle;spacingTop=-1;spacingLeft=3;spacingRight=3;rotatable=0;labelPosition=right;points=[];portConstraint=eastwest;strokeColor=inherit;" vertex="1" parent="ozlJdwtbdOe9ZKJpykzp-58">
          <mxGeometry y="182.375" width="200" height="8" as="geometry" />
        </mxCell>
        <mxCell id="ozlJdwtbdOe9ZKJpykzp-66" value="+melakukanPembayaran()" style="text;strokeColor=none;fillColor=none;align=left;verticalAlign=top;spacingLeft=4;spacingRight=4;overflow=hidden;rotatable=0;points=[[0,0.5],[1,0.5]];portConstraint=eastwest;" vertex="1" parent="ozlJdwtbdOe9ZKJpykzp-58">
          <mxGeometry y="190.375" width="200" height="26" as="geometry" />
        </mxCell>
        <mxCell id="ozlJdwtbdOe9ZKJpykzp-67" value="Keranjang" style="swimlane;fontStyle=1;align=center;verticalAlign=top;childLayout=stackLayout;horizontal=1;startSize=28.4;horizontalStack=0;resizeParent=1;resizeParentMax=0;resizeLast=0;collapsible=0;marginBottom=0;" vertex="1" parent="1">
          <mxGeometry x="20" y="301" width="204" height="148.4" as="geometry" />
        </mxCell>
        <mxCell id="ozlJdwtbdOe9ZKJpykzp-68" value="+List daftarBuku" style="text;strokeColor=none;fillColor=none;align=left;verticalAlign=top;spacingLeft=4;spacingRight=4;overflow=hidden;rotatable=0;points=[[0,0.5],[1,0.5]];portConstraint=eastwest;" vertex="1" parent="ozlJdwtbdOe9ZKJpykzp-67">
          <mxGeometry y="28.4" width="204" height="28" as="geometry" />
        </mxCell>
        <mxCell id="ozlJdwtbdOe9ZKJpykzp-69" style="line;strokeWidth=1;fillColor=none;align=left;verticalAlign=middle;spacingTop=-1;spacingLeft=3;spacingRight=3;rotatable=0;labelPosition=right;points=[];portConstraint=eastwest;strokeColor=inherit;" vertex="1" parent="ozlJdwtbdOe9ZKJpykzp-67">
          <mxGeometry y="56.4" width="204" height="8" as="geometry" />
        </mxCell>
        <mxCell id="ozlJdwtbdOe9ZKJpykzp-70" value="+tambahBuku(buku: Buku)" style="text;strokeColor=none;fillColor=none;align=left;verticalAlign=top;spacingLeft=4;spacingRight=4;overflow=hidden;rotatable=0;points=[[0,0.5],[1,0.5]];portConstraint=eastwest;" vertex="1" parent="ozlJdwtbdOe9ZKJpykzp-67">
          <mxGeometry y="64.4" width="204" height="28" as="geometry" />
        </mxCell>
        <mxCell id="ozlJdwtbdOe9ZKJpykzp-71" value="+hapusBuku(buku: Buku)" style="text;strokeColor=none;fillColor=none;align=left;verticalAlign=top;spacingLeft=4;spacingRight=4;overflow=hidden;rotatable=0;points=[[0,0.5],[1,0.5]];portConstraint=eastwest;" vertex="1" parent="ozlJdwtbdOe9ZKJpykzp-67">
          <mxGeometry y="92.4" width="204" height="28" as="geometry" />
        </mxCell>
        <mxCell id="ozlJdwtbdOe9ZKJpykzp-72" value="+hitungTotal() : : double" style="text;strokeColor=none;fillColor=none;align=left;verticalAlign=top;spacingLeft=4;spacingRight=4;overflow=hidden;rotatable=0;points=[[0,0.5],[1,0.5]];portConstraint=eastwest;" vertex="1" parent="ozlJdwtbdOe9ZKJpykzp-67">
          <mxGeometry y="120.4" width="204" height="28" as="geometry" />
        </mxCell>
        <mxCell id="ozlJdwtbdOe9ZKJpykzp-73" value="Pesanan" style="swimlane;fontStyle=1;align=center;verticalAlign=top;childLayout=stackLayout;horizontal=1;startSize=25.384615384615383;horizontalStack=0;resizeParent=1;resizeParentMax=0;resizeLast=0;collapsible=0;marginBottom=0;" vertex="1" parent="1">
          <mxGeometry x="363" y="289" width="172" height="163.3846153846154" as="geometry" />
        </mxCell>
        <mxCell id="ozlJdwtbdOe9ZKJpykzp-74" value="+String idPesanan" style="text;strokeColor=none;fillColor=none;align=left;verticalAlign=top;spacingLeft=4;spacingRight=4;overflow=hidden;rotatable=0;points=[[0,0.5],[1,0.5]];portConstraint=eastwest;" vertex="1" parent="ozlJdwtbdOe9ZKJpykzp-73">
          <mxGeometry y="25.384615384615383" width="172" height="25" as="geometry" />
        </mxCell>
        <mxCell id="ozlJdwtbdOe9ZKJpykzp-75" value="+Date tanggalPesanan" style="text;strokeColor=none;fillColor=none;align=left;verticalAlign=top;spacingLeft=4;spacingRight=4;overflow=hidden;rotatable=0;points=[[0,0.5],[1,0.5]];portConstraint=eastwest;" vertex="1" parent="ozlJdwtbdOe9ZKJpykzp-73">
          <mxGeometry y="50.38461538461539" width="172" height="25" as="geometry" />
        </mxCell>
        <mxCell id="ozlJdwtbdOe9ZKJpykzp-76" value="+List daftarBuku" style="text;strokeColor=none;fillColor=none;align=left;verticalAlign=top;spacingLeft=4;spacingRight=4;overflow=hidden;rotatable=0;points=[[0,0.5],[1,0.5]];portConstraint=eastwest;" vertex="1" parent="ozlJdwtbdOe9ZKJpykzp-73">
          <mxGeometry y="75.38461538461539" width="172" height="25" as="geometry" />
        </mxCell>
        <mxCell id="ozlJdwtbdOe9ZKJpykzp-77" value="+double total" style="text;strokeColor=none;fillColor=none;align=left;verticalAlign=top;spacingLeft=4;spacingRight=4;overflow=hidden;rotatable=0;points=[[0,0.5],[1,0.5]];portConstraint=eastwest;" vertex="1" parent="ozlJdwtbdOe9ZKJpykzp-73">
          <mxGeometry y="100.38461538461539" width="172" height="25" as="geometry" />
        </mxCell>
        <mxCell id="ozlJdwtbdOe9ZKJpykzp-78" value="+String status" style="text;strokeColor=none;fillColor=none;align=left;verticalAlign=top;spacingLeft=4;spacingRight=4;overflow=hidden;rotatable=0;points=[[0,0.5],[1,0.5]];portConstraint=eastwest;" vertex="1" parent="ozlJdwtbdOe9ZKJpykzp-73">
          <mxGeometry y="125.38461538461539" width="172" height="25" as="geometry" />
        </mxCell>
        <mxCell id="ozlJdwtbdOe9ZKJpykzp-79" style="line;strokeWidth=1;fillColor=none;align=left;verticalAlign=middle;spacingTop=-1;spacingLeft=3;spacingRight=3;rotatable=0;labelPosition=right;points=[];portConstraint=eastwest;strokeColor=inherit;" vertex="1" parent="ozlJdwtbdOe9ZKJpykzp-73">
          <mxGeometry y="150.3846153846154" width="172" height="13" as="geometry" />
        </mxCell>
        <mxCell id="ozlJdwtbdOe9ZKJpykzp-80" value="Admin" style="swimlane;fontStyle=1;align=center;verticalAlign=top;childLayout=stackLayout;horizontal=1;startSize=27.5;horizontalStack=0;resizeParent=1;resizeParentMax=0;resizeLast=0;collapsible=0;marginBottom=0;" vertex="1" parent="1">
          <mxGeometry x="274" y="43" width="370" height="175.5" as="geometry" />
        </mxCell>
        <mxCell id="ozlJdwtbdOe9ZKJpykzp-81" value="+String nama" style="text;strokeColor=none;fillColor=none;align=left;verticalAlign=top;spacingLeft=4;spacingRight=4;overflow=hidden;rotatable=0;points=[[0,0.5],[1,0.5]];portConstraint=eastwest;" vertex="1" parent="ozlJdwtbdOe9ZKJpykzp-80">
          <mxGeometry y="27.5" width="370" height="28" as="geometry" />
        </mxCell>
        <mxCell id="ozlJdwtbdOe9ZKJpykzp-82" value="+String email" style="text;strokeColor=none;fillColor=none;align=left;verticalAlign=top;spacingLeft=4;spacingRight=4;overflow=hidden;rotatable=0;points=[[0,0.5],[1,0.5]];portConstraint=eastwest;" vertex="1" parent="ozlJdwtbdOe9ZKJpykzp-80">
          <mxGeometry y="55.5" width="370" height="28" as="geometry" />
        </mxCell>
        <mxCell id="ozlJdwtbdOe9ZKJpykzp-83" style="line;strokeWidth=1;fillColor=none;align=left;verticalAlign=middle;spacingTop=-1;spacingLeft=3;spacingRight=3;rotatable=0;labelPosition=right;points=[];portConstraint=eastwest;strokeColor=inherit;" vertex="1" parent="ozlJdwtbdOe9ZKJpykzp-80">
          <mxGeometry y="83.5" width="370" height="8" as="geometry" />
        </mxCell>
        <mxCell id="ozlJdwtbdOe9ZKJpykzp-84" value="+mengelolaStok(buku: Buku)" style="text;strokeColor=none;fillColor=none;align=left;verticalAlign=top;spacingLeft=4;spacingRight=4;overflow=hidden;rotatable=0;points=[[0,0.5],[1,0.5]];portConstraint=eastwest;" vertex="1" parent="ozlJdwtbdOe9ZKJpykzp-80">
          <mxGeometry y="91.5" width="370" height="28" as="geometry" />
        </mxCell>
        <mxCell id="ozlJdwtbdOe9ZKJpykzp-85" value="+memprosesPesanan(pesanan: Pesanan)" style="text;strokeColor=none;fillColor=none;align=left;verticalAlign=top;spacingLeft=4;spacingRight=4;overflow=hidden;rotatable=0;points=[[0,0.5],[1,0.5]];portConstraint=eastwest;" vertex="1" parent="ozlJdwtbdOe9ZKJpykzp-80">
          <mxGeometry y="119.5" width="370" height="28" as="geometry" />
        </mxCell>
        <mxCell id="ozlJdwtbdOe9ZKJpykzp-86" value="+mengelolaDataPelanggan(pelanggan: Pelanggan)" style="text;strokeColor=none;fillColor=none;align=left;verticalAlign=top;spacingLeft=4;spacingRight=4;overflow=hidden;rotatable=0;points=[[0,0.5],[1,0.5]];portConstraint=eastwest;" vertex="1" parent="ozlJdwtbdOe9ZKJpykzp-80">
          <mxGeometry y="147.5" width="370" height="28" as="geometry" />
        </mxCell>
        <mxCell id="ozlJdwtbdOe9ZKJpykzp-87" value="Pembayaran" style="swimlane;fontStyle=1;align=center;verticalAlign=top;childLayout=stackLayout;horizontal=1;startSize=25.818181818181817;horizontalStack=0;resizeParent=1;resizeParentMax=0;resizeLast=0;collapsible=0;marginBottom=0;" vertex="1" parent="1">
          <mxGeometry x="693" y="55" width="127" height="142.8181818181818" as="geometry" />
        </mxCell>
        <mxCell id="ozlJdwtbdOe9ZKJpykzp-88" value="+String metode" style="text;strokeColor=none;fillColor=none;align=left;verticalAlign=top;spacingLeft=4;spacingRight=4;overflow=hidden;rotatable=0;points=[[0,0.5],[1,0.5]];portConstraint=eastwest;" vertex="1" parent="ozlJdwtbdOe9ZKJpykzp-87">
          <mxGeometry y="25.818181818181817" width="127" height="26" as="geometry" />
        </mxCell>
        <mxCell id="ozlJdwtbdOe9ZKJpykzp-89" value="+double jumlah" style="text;strokeColor=none;fillColor=none;align=left;verticalAlign=top;spacingLeft=4;spacingRight=4;overflow=hidden;rotatable=0;points=[[0,0.5],[1,0.5]];portConstraint=eastwest;" vertex="1" parent="ozlJdwtbdOe9ZKJpykzp-87">
          <mxGeometry y="51.81818181818181" width="127" height="26" as="geometry" />
        </mxCell>
        <mxCell id="ozlJdwtbdOe9ZKJpykzp-90" value="+Date tanggal" style="text;strokeColor=none;fillColor=none;align=left;verticalAlign=top;spacingLeft=4;spacingRight=4;overflow=hidden;rotatable=0;points=[[0,0.5],[1,0.5]];portConstraint=eastwest;" vertex="1" parent="ozlJdwtbdOe9ZKJpykzp-87">
          <mxGeometry y="77.81818181818181" width="127" height="26" as="geometry" />
        </mxCell>
        <mxCell id="ozlJdwtbdOe9ZKJpykzp-91" value="+String status" style="text;strokeColor=none;fillColor=none;align=left;verticalAlign=top;spacingLeft=4;spacingRight=4;overflow=hidden;rotatable=0;points=[[0,0.5],[1,0.5]];portConstraint=eastwest;" vertex="1" parent="ozlJdwtbdOe9ZKJpykzp-87">
          <mxGeometry y="103.81818181818181" width="127" height="26" as="geometry" />
        </mxCell>
        <mxCell id="ozlJdwtbdOe9ZKJpykzp-92" style="line;strokeWidth=1;fillColor=none;align=left;verticalAlign=middle;spacingTop=-1;spacingLeft=3;spacingRight=3;rotatable=0;labelPosition=right;points=[];portConstraint=eastwest;strokeColor=inherit;" vertex="1" parent="ozlJdwtbdOe9ZKJpykzp-87">
          <mxGeometry y="129.8181818181818" width="127" height="13" as="geometry" />
        </mxCell>
        <mxCell id="ozlJdwtbdOe9ZKJpykzp-93" value="" style="curved=1;startArrow=none;endArrow=open;endSize=12;exitX=0.49;exitY=1;entryX=0.5;entryY=0;rounded=0;" edge="1" parent="1" source="ozlJdwtbdOe9ZKJpykzp-58" target="ozlJdwtbdOe9ZKJpykzp-67">
          <mxGeometry relative="1" as="geometry">
            <Array as="points">
              <mxPoint x="122" y="264" />
            </Array>
          </mxGeometry>
        </mxCell>
        <mxCell id="ozlJdwtbdOe9ZKJpykzp-94" value="" style="curved=1;startArrow=none;endArrow=open;endSize=12;exitX=1;exitY=0.87;entryX=0;entryY=0.15;rounded=0;" edge="1" parent="1" source="ozlJdwtbdOe9ZKJpykzp-58" target="ozlJdwtbdOe9ZKJpykzp-73">
          <mxGeometry relative="1" as="geometry">
            <Array as="points">
              <mxPoint x="289" y="264" />
            </Array>
          </mxGeometry>
        </mxCell>
        <mxCell id="ozlJdwtbdOe9ZKJpykzp-95" value="" style="curved=1;startArrow=none;endArrow=open;endSize=12;exitX=0.5;exitY=1;entryX=0.37;entryY=0;rounded=0;" edge="1" parent="1" source="ozlJdwtbdOe9ZKJpykzp-73" target="ozlJdwtbdOe9ZKJpykzp-47">
          <mxGeometry relative="1" as="geometry">
            <Array as="points">
              <mxPoint x="449" y="487" />
            </Array>
          </mxGeometry>
        </mxCell>
        <mxCell id="ozlJdwtbdOe9ZKJpykzp-96" value="" style="curved=1;startArrow=none;endArrow=open;endSize=12;exitX=1;exitY=0.95;entryX=1;entryY=0.37;rounded=0;" edge="1" parent="1" source="ozlJdwtbdOe9ZKJpykzp-80" target="ozlJdwtbdOe9ZKJpykzp-47">
          <mxGeometry relative="1" as="geometry">
            <Array as="points">
              <mxPoint x="777" y="264" />
              <mxPoint x="777" y="487" />
            </Array>
          </mxGeometry>
        </mxCell>
        <mxCell id="ozlJdwtbdOe9ZKJpykzp-97" value="" style="curved=1;startArrow=none;endArrow=open;endSize=12;exitX=0.41;exitY=1;entryX=0.32;entryY=0;rounded=0;" edge="1" parent="1" source="ozlJdwtbdOe9ZKJpykzp-80" target="ozlJdwtbdOe9ZKJpykzp-73">
          <mxGeometry relative="1" as="geometry">
            <Array as="points">
              <mxPoint x="408" y="264" />
            </Array>
          </mxGeometry>
        </mxCell>
        <mxCell id="ozlJdwtbdOe9ZKJpykzp-98" value="" style="curved=1;startArrow=none;endArrow=open;endSize=12;exitX=0.28;exitY=1;entryX=1;entryY=0.28;rounded=0;" edge="1" parent="1" source="ozlJdwtbdOe9ZKJpykzp-87" target="ozlJdwtbdOe9ZKJpykzp-73">
          <mxGeometry relative="1" as="geometry">
            <Array as="points">
              <mxPoint x="706" y="264" />
            </Array>
          </mxGeometry>
        </mxCell>
      </root>
    </mxGraphModel>
  </diagram>
</mxfile>
